<svg xmlns="http://www.w3.org/2000/svg" xmlns:xlink="http://www.w3.org/1999/xlink" width="1920" zoomAndPan="magnify" viewBox="0 0 1440 809.999993" height="1080" preserveAspectRatio="xMidYMid meet" version="1.0"><path fill="#000000" d="M 1017.507812 424.554688 C 992.480469 308.339844 887.570312 236.039062 732.972656 237.96875 C 561.621094 240.113281 514.609375 150.050781 414.9375 185.882812 C 391.328125 194.367188 372.199219 212.371094 355.089844 230.878906 C 342.144531 244.882812 329.167969 261.3125 312.113281 270.414062 C 297.832031 278.035156 282.699219 278.808594 268.519531 287.261719 C 238.027344 305.4375 208.730469 335.417969 207.945312 371.761719 C 206.394531 443.769531 264.234375 476.203125 299.152344 484.351562 C 328.136719 491.117188 345.839844 497.457031 349.917969 508.675781 C 354 519.898438 346.492188 542.324219 364.851562 564.546875 C 402.566406 610.199219 505.445312 580.382812 537.71875 593.128906 C 603.484375 619.097656 675.335938 628.984375 745.59375 622.121094 C 772.335938 619.507812 793.964844 616.84375 820.425781 619.605469 C 837.398438 621.378906 854.425781 622.933594 871.496094 623.417969 C 938.136719 625.304688 1008.210938 608.582031 1023.179688 533.066406 C 1030.234375 497.449219 1025.058594 459.613281 1017.507812 424.554688 " fill-opacity="1" fill-rule="nonzero"/><path fill="#a991cc" d="M 1229.1875 810.273438 C 1229.1875 810.273438 1211.765625 666.851562 955.191406 598.363281 C 955.191406 769.910156 953.21875 810.914062 953.21875 810.914062 L 1229.1875 810.273438 " fill-opacity="1" fill-rule="nonzero"/><path fill="#a991cc" d="M 282.644531 714.261719 C 282.644531 714.261719 402.238281 603.453125 554.910156 570.957031 C 567.824219 728.535156 567.824219 819.902344 567.824219 819.902344 L 345.441406 819.335938 L 282.644531 714.261719 " fill-opacity="1" fill-rule="nonzero"/><path fill="#a991cc" d="M 388.679688 757.722656 C 388.679688 791.75 361.097656 819.335938 327.070312 819.335938 C 293.042969 819.335938 265.457031 791.75 265.457031 757.722656 C 265.457031 723.695312 293.042969 696.113281 327.070312 696.113281 C 361.097656 696.113281 388.679688 723.695312 388.679688 757.722656 " fill-opacity="1" fill-rule="nonzero"/><path fill="#a991cc" d="M 813.3125 559.328125 C 813.3125 559.328125 638.738281 546.496094 531.5625 576.660156 C 531.5625 810.273438 531.5625 810.273438 531.5625 810.273438 L 979.53125 810.273438 L 986.117188 605.128906 L 813.3125 559.328125 " fill-opacity="1" fill-rule="nonzero"/><path fill="#a991cc" d="M 388.988281 757.375 C 388.988281 791.40625 361.402344 818.988281 327.375 818.988281 C 293.347656 818.988281 266.105469 791.398438 265.761719 757.375 C 265.417969 722.96875 293.046875 695.433594 327.375 695.761719 C 361.402344 696.089844 388.988281 723.347656 388.988281 757.375 " fill-opacity="1" fill-rule="nonzero"/><path fill="#a991cc" d="M 298.105469 702.988281 C 298.105469 702.988281 422.40625 639.066406 548.039062 642.4375 C 488.132812 702.988281 518.410156 746.792969 518.410156 746.792969 L 342.898438 817.011719 C 337.484375 796.523438 298.105469 702.988281 298.105469 702.988281 " fill-opacity="1" fill-rule="nonzero"/><path fill="#ffffff" d="M 374.320312 810.914062 L 374.320312 819.902344 L 1352.414062 819.902344 L 1352.414062 810.914062 L 1329.953125 810.914062 L 1329.953125 762.136719 C 1329.953125 762.136719 1293.277344 766.835938 1270.078125 763.496094 C 1246.867188 760.15625 1139.433594 737.121094 1099.59375 731.898438 C 1059.753906 726.679688 987.714844 726.359375 950.804688 739.515625 C 913.90625 752.671875 910.632812 749.527344 890.125 766.261719 C 845.070312 750.265625 821.914062 739.144531 669.867188 732.945312 C 613.660156 734.328125 531.164062 736.574219 461.246094 758.65625 C 391.332031 780.742188 386.511719 782.675781 386.511719 782.675781 L 391.53125 810.273438 L 374.320312 810.914062 " fill-opacity="1" fill-rule="nonzero"/><path fill="#000000" d="M 394.058594 808.023438 L 548.363281 808.023438 L 546.832031 785.5625 L 389.976562 785.5625 Z M 554.550781 813.800781 L 389.238281 813.800781 L 383.054688 779.785156 L 552.230469 779.785156 L 554.550781 813.800781 " fill-opacity="1" fill-rule="nonzero"/><path fill="#000000" d="M 1352.414062 818.09375 L 374.320312 818.09375 L 374.320312 801.808594 L 1352.414062 801.808594 L 1352.414062 818.09375 " fill-opacity="1" fill-rule="nonzero"/><path fill="#000000" d="M 936.53125 801.609375 C 929.210938 801.609375 923.042969 804.976562 918.980469 808.011719 L 952.582031 807.964844 C 949.261719 804.976562 943.882812 801.609375 936.53125 801.609375 Z M 905.285156 813.808594 L 909.292969 809.054688 C 909.746094 808.511719 920.613281 795.832031 936.53125 795.832031 C 949.714844 795.832031 957.722656 804.460938 960.421875 807.953125 L 1327.058594 807.386719 L 1327.058594 765.644531 C 1287.714844 772.835938 1243.210938 763.136719 1191.898438 751.960938 C 1159.226562 744.839844 1125.425781 737.476562 1088.972656 733.5625 C 995.4375 723.523438 940.253906 774.949219 937.359375 784.179688 L 936.417969 787.199219 L 933.496094 785.988281 C 900.175781 772.152344 838.148438 746.40625 735.449219 739.347656 C 634.867188 732.445312 551.914062 784.582031 551.085938 785.113281 L 547.976562 780.238281 C 548.820312 779.703125 633.394531 726.539062 735.851562 733.585938 C 836.988281 740.535156 899.039062 765.449219 933.238281 779.621094 C 938.074219 771.816406 953.5625 757.9375 975.992188 746.71875 C 999.355469 735.039062 1038.035156 722.28125 1089.585938 727.820312 C 1126.355469 731.765625 1160.300781 739.160156 1193.132812 746.316406 C 1245.300781 757.683594 1290.363281 767.496094 1329.355469 759.3125 L 1332.84375 758.578125 L 1332.84375 813.15625 L 905.285156 813.808594 " fill-opacity="1" fill-rule="nonzero"/><path fill="#000000" d="M 387.265625 784.445312 L 385.761719 780.90625 C 387.277344 780.257812 539.382812 716.867188 723.484375 733.984375 L 723.128906 737.820312 C 539.988281 720.78125 388.769531 783.8125 387.265625 784.445312 " fill-opacity="1" fill-rule="nonzero"/><path fill="#000000" d="M 891.46875 767.652344 L 888.792969 764.875 C 890.578125 763.160156 933.964844 722.910156 1068.96875 727.445312 L 1068.839844 731.292969 C 935.453125 726.855469 891.894531 767.242188 891.46875 767.652344 " fill-opacity="1" fill-rule="nonzero"/><path fill="#ffffff" d="M 516.796875 743.523438 C 516.496094 743.523438 602.449219 732.875 666.578125 740.128906 C 729.570312 747.257812 752.179688 752.898438 779.617188 766.261719 C 807.050781 779.625 826.464844 790.058594 834.167969 786.84375 C 838.339844 785.238281 838.660156 781.394531 838.660156 781.394531 C 838.660156 781.394531 836.734375 776.21875 829.996094 770.140625 C 842.835938 779.785156 852.457031 782.996094 856.308594 782.675781 C 860.160156 782.355469 861.121094 776.992188 859.195312 774.214844 C 863.371094 777.863281 867.539062 777.3125 867.539062 774.214844 C 867.539062 771.125 868.503906 757.644531 823.257812 722.988281 C 837.699219 726.519531 861.765625 730.691406 880.054688 736.464844 C 898.347656 742.242188 903.160156 742.242188 905.40625 739.351562 C 907.648438 736.464844 907.011719 721.382812 855.988281 706.300781 C 810.097656 693.785156 810.097656 693.785156 810.097656 693.785156 C 810.097656 693.785156 773.535156 667.472656 723.300781 655.917969 C 673.078125 644.367188 607.613281 642.726562 549.53125 641.78125 C 510.058594 675.171875 503.644531 721.0625 516.796875 743.523438 " fill-opacity="1" fill-rule="nonzero"/><path fill="#000000" d="M 615.226562 735.671875 C 634.523438 735.671875 651.871094 736.527344 666.789062 738.214844 C 728.507812 745.199219 751.878906 750.609375 780.460938 764.53125 C 783.570312 766.046875 786.578125 767.523438 789.476562 768.949219 C 808.308594 778.199219 823.179688 785.503906 830.78125 785.503906 C 831.839844 785.503906 832.730469 785.355469 833.429688 785.066406 C 835.734375 784.179688 836.453125 782.425781 836.664062 781.617188 C 836.042969 780.304688 833.855469 776.214844 828.707031 771.570312 L 831.148438 768.601562 C 843.933594 778.207031 852.628906 780.769531 855.761719 780.769531 C 855.898438 780.769531 856.023438 780.769531 856.148438 780.753906 C 856.425781 780.730469 857.269531 780.664062 857.835938 779.457031 C 858.441406 778.183594 858.34375 776.363281 857.617188 775.316406 L 848.742188 762.523438 L 860.464844 772.765625 C 861.941406 774.054688 863.535156 774.824219 864.742188 774.824219 C 865.617188 774.824219 865.617188 774.5 865.617188 774.214844 L 865.617188 774.015625 C 865.6875 760.71875 841.984375 739.757812 822.085938 724.515625 L 814.804688 718.941406 L 823.714844 721.117188 C 828.46875 722.28125 834.363281 723.53125 840.605469 724.855469 C 853.59375 727.613281 868.308594 730.738281 880.632812 734.628906 C 890.921875 737.878906 897.054688 739.324219 900.519531 739.324219 C 902.6875 739.324219 903.417969 738.773438 903.886719 738.171875 C 904.054688 737.960938 904.394531 736.957031 903.828125 735.191406 C 902.46875 730.960938 895.03125 719.847656 855.4375 708.148438 L 809.261719 695.550781 L 808.976562 695.347656 C 808.609375 695.085938 772.117188 669.121094 722.871094 657.796875 C 674.402344 646.648438 611.042969 644.714844 550.226562 643.71875 C 513.894531 674.816406 505.234375 718.167969 517.855469 741.472656 C 526.507812 740.4375 569.699219 735.671875 615.226562 735.671875 Z M 830.78125 789.355469 C 822.285156 789.355469 807.8125 782.246094 787.777344 772.40625 C 784.886719 770.984375 781.875 769.507812 778.769531 767.992188 C 750.660156 754.304688 727.554688 748.96875 666.359375 742.046875 C 651.582031 740.371094 634.382812 739.523438 615.226562 739.523438 C 565.539062 739.523438 519.503906 745.121094 517.191406 745.414062 L 515.886719 745.773438 L 515.140625 744.496094 C 500.796875 720.011719 509.390625 673.21875 548.289062 640.3125 L 548.839844 639.84375 L 549.5625 639.859375 C 610.8125 640.855469 674.714844 642.765625 723.734375 654.042969 C 771.421875 665.007812 807.347656 689.511719 810.933594 692.015625 L 856.496094 704.441406 C 896.394531 716.238281 905.574219 728.03125 907.496094 734.015625 C 908.320312 736.578125 908.105469 739.015625 906.929688 740.535156 C 905.523438 742.335938 903.488281 743.175781 900.519531 743.175781 C 896.589844 743.175781 890.296875 741.71875 879.472656 738.300781 C 867.332031 734.464844 852.707031 731.363281 839.804688 728.625 C 836.84375 727.996094 833.960938 727.382812 831.234375 726.789062 C 856.667969 747.15625 869.527344 763.035156 869.464844 774.039062 C 869.464844 776.839844 867.523438 778.675781 864.742188 778.675781 C 863.878906 778.675781 862.976562 778.507812 862.0625 778.179688 C 861.992188 779.191406 861.746094 780.195312 861.320312 781.101562 C 860.359375 783.144531 858.589844 784.414062 856.46875 784.59375 C 853.480469 784.851562 847.566406 783.3125 839.515625 778.746094 C 840.160156 779.917969 840.4375 780.640625 840.460938 780.71875 L 840.609375 781.125 L 840.582031 781.546875 C 840.558594 781.753906 840.097656 786.632812 834.859375 788.640625 C 833.726562 789.117188 832.371094 789.355469 830.78125 789.355469 " fill-opacity="1" fill-rule="nonzero"/><path fill="#000000" d="M 411.835938 661.128906 L 410.917969 657.390625 C 463.101562 644.550781 514.609375 638.714844 564.023438 640.035156 L 563.917969 643.886719 C 514.851562 642.558594 463.683594 648.371094 411.835938 661.128906 " fill-opacity="1" fill-rule="nonzero"/><path fill="#000000" d="M 828.695312 771.5625 C 797.910156 743.425781 759.839844 728.648438 757.21875 728.101562 L 757.476562 726.871094 L 757.476562 724.269531 C 759.859375 724.269531 799.976562 740.097656 831.296875 768.71875 L 828.695312 771.5625 " fill-opacity="1" fill-rule="nonzero"/><path fill="#000000" d="M 857.757812 775.5 C 817.761719 730.664062 777.363281 713.703125 776.953125 713.535156 L 778.421875 709.976562 C 778.835938 710.144531 820.054688 727.453125 860.632812 772.933594 L 857.757812 775.5 " fill-opacity="1" fill-rule="nonzero"/><path fill="#000000" d="M 823.953125 725.957031 L 797.703125 706.070312 L 800.027344 703 L 826.277344 722.886719 L 823.953125 725.957031 " fill-opacity="1" fill-rule="nonzero"/><path fill="#ffffff" d="M 1004.8125 726.074219 C 1004.8125 726.074219 1022.476562 732.835938 1029.621094 734.078125 C 1036.753906 735.320312 1049.300781 731.644531 1052.664062 730.859375 C 1053.75 730.808594 1053.492188 726.792969 1053.492188 726.792969 C 1053.492188 726.792969 1059.820312 732.945312 1067.253906 732.800781 C 1074.679688 732.65625 1078.019531 728.828125 1078.019531 728.828125 C 1078.019531 728.828125 1090.003906 731.0625 1095.171875 731.582031 C 1100.328125 732.105469 1100.976562 727.746094 1100.976562 727.746094 C 1100.976562 727.746094 1106.515625 733.082031 1116.183594 734.726562 C 1125.839844 736.375 1125.984375 731.128906 1125.984375 731.128906 C 1125.984375 731.128906 1113.792969 699.816406 1097.308594 688.113281 C 1080.816406 676.40625 1067.859375 675.132812 1059.140625 676.007812 C 1044.363281 675.058594 1038.804688 678.328125 1035.3125 678.75 C 1026.480469 677.492188 1017.605469 679.691406 1011.296875 683.488281 C 1004.992188 687.285156 1001.617188 692.292969 995.921875 694.484375 C 990.222656 696.679688 983.152344 702.300781 980.742188 711.878906 C 978.320312 721.449219 978.421875 732.953125 978.421875 732.953125 " fill-opacity="1" fill-rule="nonzero"/><path fill="#000000" d="M 1034.035156 735.960938 C 1032.179688 736.050781 1030.460938 736.003906 1028.929688 735.753906 C 1021.761719 734.574219 1004.601562 728.0625 1003.875 727.785156 L 1005.746094 724.363281 C 1005.917969 724.429688 1023.375 731.136719 1030.25 732.339844 C 1036.390625 733.417969 1047.363281 730.386719 1051.414062 729.402344 C 1051.507812 728.804688 1051.542969 727.839844 1051.484375 726.996094 L 1051.207031 721.9375 L 1055.035156 725.625 C 1055.09375 725.679688 1060.847656 731.21875 1067.148438 731.023438 C 1073.410156 730.9375 1076.226562 727.898438 1076.347656 727.769531 L 1077.121094 726.914062 L 1078.40625 727.132812 C 1078.519531 727.152344 1090.320312 729.328125 1095.300781 729.828125 C 1095.308594 729.828125 1095.308594 729.828125 1095.3125 729.828125 C 1098.433594 730.132812 1098.894531 727.707031 1098.9375 727.429688 L 1099.503906 723.695312 L 1102.46875 726.582031 C 1102.527344 726.625 1107.695312 731.476562 1116.507812 733.007812 C 1120.414062 733.683594 1122.242188 733.058594 1123.09375 732.425781 C 1123.621094 732.019531 1123.847656 731.558594 1123.9375 731.277344 C 1122.34375 727.453125 1110.953125 700.179688 1096.230469 689.71875 C 1083.546875 680.710938 1071.152344 676.757812 1059.324219 677.90625 L 1059.160156 677.921875 L 1058.980469 677.910156 C 1048.3125 677.199219 1042.71875 678.742188 1039.007812 679.789062 C 1037.621094 680.179688 1036.527344 680.492188 1035.46875 680.621094 L 1035.199219 680.652344 L 1034.941406 680.613281 C 1027.222656 679.535156 1018.730469 681.199219 1012.214844 685.085938 C 1009.648438 686.628906 1007.574219 688.402344 1005.566406 690.128906 C 1002.722656 692.570312 1000.050781 694.886719 996.449219 696.285156 C 991.152344 698.335938 984.734375 703.613281 982.53125 712.242188 C 980.203125 721.390625 980.242188 732.609375 980.242188 732.722656 L 976.601562 733.171875 C 976.59375 732.695312 976.492188 721.269531 978.882812 711.566406 C 981.476562 701.339844 989.082031 695.097656 995.375 692.675781 C 998.269531 691.5625 1000.550781 689.585938 1003.1875 687.300781 C 1005.222656 685.546875 1007.527344 683.5625 1010.378906 681.851562 C 1017.566406 677.535156 1026.886719 675.679688 1035.390625 676.839844 C 1036.085938 676.726562 1036.953125 676.476562 1038.027344 676.171875 C 1041.722656 675.125 1047.890625 673.386719 1059.117188 674.085938 C 1071.789062 672.824219 1084.988281 677.003906 1098.382812 686.507812 C 1115.164062 698.421875 1127.320312 729.222656 1127.832031 730.5 L 1127.96875 730.847656 L 1127.960938 731.214844 C 1127.957031 731.453125 1127.847656 733.640625 1125.679688 735.292969 C 1123.558594 736.90625 1120.292969 737.359375 1115.941406 736.589844 C 1109.34375 735.425781 1104.515625 732.675781 1101.855469 730.804688 C 1100.6875 732.367188 1098.566406 733.703125 1095.066406 733.351562 C 1095.058594 733.347656 1095.050781 733.347656 1095.046875 733.347656 C 1090.71875 732.898438 1081.964844 731.304688 1078.800781 730.734375 C 1077.199219 732.042969 1073.46875 734.398438 1067.277344 734.464844 C 1062.390625 734.582031 1058.011719 732.359375 1055.207031 730.496094 C 1054.945312 731.339844 1054.585938 731.675781 1054.414062 731.835938 C 1054.015625 732.214844 1053.5 732.457031 1052.949219 732.542969 L 1052.515625 732.640625 C 1047.117188 733.949219 1039.996094 735.6875 1034.035156 735.960938 " fill-opacity="1" fill-rule="nonzero"/><path fill="#ffffff" d="M 1019.902344 701.550781 C 1019.902344 701.550781 1048.472656 715.207031 1053.523438 727.519531 " fill-opacity="1" fill-rule="nonzero"/><path fill="#000000" d="M 1051.625 728.1875 C 1046.867188 716.582031 1019.128906 703.34375 1018.847656 703.210938 L 1020.957031 699.894531 C 1022.140625 700.464844 1050.199219 714.128906 1055.425781 726.871094 L 1051.625 728.1875 " fill-opacity="1" fill-rule="nonzero"/><path fill="#ffffff" d="M 1053.136719 692.75 C 1053.136719 692.75 1075.75 705.585938 1078.019531 728.828125 " fill-opacity="1" fill-rule="nonzero"/><path fill="#000000" d="M 1075.960938 728.929688 C 1073.855469 706.871094 1052.277344 694.421875 1052.066406 694.300781 L 1054.199219 691.1875 C 1055.15625 691.71875 1077.695312 704.835938 1080.101562 728.730469 L 1075.960938 728.929688 " fill-opacity="1" fill-rule="nonzero"/><path fill="#ffffff" d="M 1086.140625 698.464844 C 1086.140625 698.464844 1099.136719 713.769531 1100.46875 729.171875 " fill-opacity="1" fill-rule="nonzero"/><path fill="#000000" d="M 1098.398438 729.214844 C 1097.1875 714.617188 1084.707031 699.753906 1084.585938 699.605469 L 1087.683594 697.3125 C 1088.226562 697.960938 1101.097656 713.292969 1102.515625 729.128906 L 1098.398438 729.214844 " fill-opacity="1" fill-rule="nonzero"/><path fill="#ffffff" d="M 818.445312 548.417969 L 795.726562 572.851562 C 795.726562 572.851562 776.859375 605.59375 802.398438 628.324219 C 825.121094 648.539062 862.085938 659.449219 896.097656 586.929688 C 860.160156 547.777344 838.890625 524.03125 838.890625 524.03125 L 818.445312 548.417969 " fill-opacity="1" fill-rule="nonzero"/><path fill="#ffffff" d="M 840.660156 560.613281 C 840.660156 560.613281 860.078125 645.125 921.769531 650.523438 C 989.007812 656.402344 1001.355469 590.136719 1007.125 565.75 C 1012.902344 541.359375 1029.59375 457.285156 979.535156 424.554688 C 929.472656 391.820312 796.128906 408.507812 840.660156 560.613281 " fill-opacity="1" fill-rule="nonzero"/><path fill="#000000" d="M 966.601562 589.050781 C 962.230469 589.050781 957.648438 586.378906 957.054688 586.019531 L 959.046875 582.722656 C 960.570312 583.636719 965.140625 585.835938 967.964844 585.035156 C 968.808594 584.792969 969.398438 584.304688 969.816406 583.484375 C 971.601562 580.042969 965.816406 571.492188 961.140625 566.523438 L 963.949219 563.882812 C 965.289062 565.3125 976.96875 578.050781 973.238281 585.253906 C 972.328125 587.011719 970.867188 588.214844 969.003906 588.738281 C 968.226562 588.957031 967.421875 589.050781 966.601562 589.050781 " fill-opacity="1" fill-rule="nonzero"/><path fill="#000000" d="M 916.558594 522.042969 C 900.964844 522.042969 887.339844 534.035156 884.164062 550.558594 C 882.40625 559.6875 884.0625 568.894531 888.820312 576.484375 C 893.535156 584.007812 900.75 589.039062 909.132812 590.648438 C 911 591.007812 912.90625 591.191406 914.792969 591.191406 C 930.386719 591.191406 944.011719 579.199219 947.191406 562.675781 C 950.796875 543.910156 939.59375 525.925781 922.21875 522.582031 C 920.355469 522.226562 918.445312 522.042969 916.558594 522.042969 Z M 914.792969 596.96875 C 912.539062 596.96875 910.265625 596.75 908.042969 596.320312 C 898.070312 594.402344 889.503906 588.449219 883.925781 579.550781 C 878.390625 570.71875 876.460938 560.035156 878.488281 549.464844 C 882.191406 530.230469 898.199219 516.265625 916.558594 516.265625 C 918.8125 516.265625 921.085938 516.484375 923.308594 516.914062 C 943.8125 520.855469 957.070312 541.871094 952.863281 563.765625 C 949.160156 583.003906 933.152344 596.96875 914.792969 596.96875 " fill-opacity="1" fill-rule="nonzero"/><path fill="#000000" d="M 1009.050781 551.5625 C 997.285156 551.5625 985.65625 560.914062 980.785156 574.304688 C 977.796875 582.519531 977.609375 591.171875 980.273438 598.671875 C 982.851562 605.972656 987.84375 611.289062 994.304688 613.644531 C 996.667969 614.5 999.144531 614.9375 1001.6875 614.9375 C 1013.457031 614.9375 1025.082031 605.582031 1029.953125 592.195312 C 1032.941406 583.980469 1033.125 575.328125 1030.464844 567.828125 C 1027.882812 560.527344 1022.894531 555.210938 1016.433594 552.859375 C 1014.070312 552 1011.59375 551.5625 1009.050781 551.5625 Z M 1001.6875 620.714844 C 998.472656 620.714844 995.328125 620.160156 992.332031 619.070312 C 984.214844 616.117188 978 609.558594 974.820312 600.601562 C 971.722656 591.839844 971.910156 581.800781 975.355469 572.328125 C 981.136719 556.453125 994.675781 545.789062 1009.050781 545.789062 C 1012.265625 545.789062 1015.40625 546.339844 1018.40625 547.429688 C 1026.523438 550.382812 1032.738281 556.941406 1035.917969 565.898438 C 1039.011719 574.660156 1038.828125 584.703125 1035.382812 594.171875 C 1029.597656 610.046875 1016.0625 620.714844 1001.6875 620.714844 " fill-opacity="1" fill-rule="nonzero"/><path fill="#000000" d="M 975.210938 570.621094 C 971.828125 566.820312 958.042969 563.882812 950.152344 562.921875 L 950.847656 557.1875 C 953.160156 557.464844 973.59375 560.117188 979.527344 566.773438 L 975.210938 570.621094 " fill-opacity="1" fill-rule="nonzero"/><path fill="#000000" d="M 917.761719 603.453125 C 917.761719 603.453125 906.691406 625.59375 917.761719 629.929688 C 928.832031 634.257812 946.800781 628 953.21875 616.691406 C 949.847656 615.328125 943.753906 616.449219 917.761719 603.453125 " fill-opacity="1" fill-rule="nonzero"/><path fill="#000000" d="M 805.765625 503.726562 C 805.765625 503.726562 831.089844 523.898438 862.089844 510.617188 C 893.90625 496.980469 918.378906 453.929688 946.929688 442.378906 C 930.570312 451.6875 922.242188 471.066406 924.472656 486.34375 C 925.132812 490.863281 927.847656 498.464844 932.953125 494.503906 C 934.808594 493.0625 935.0625 490.445312 935.683594 488.175781 C 940.515625 470.617188 948.753906 463.769531 961.375 460.027344 C 958.296875 466.644531 948.800781 468.949219 949.503906 485.378906 C 951.113281 522.925781 1019.085938 538.449219 1032.945312 530.941406 C 1043.628906 525.152344 1044.558594 499.390625 1044.113281 488.449219 C 1042.320312 444.558594 1010.03125 406.6875 979.203125 378.625 C 916.410156 321.46875 765.085938 436.421875 805.765625 503.726562 " fill-opacity="1" fill-rule="nonzero"/><path fill="#ffffff" d="M 847.671875 514.25 C 847.671875 514.25 829.308594 493.070312 811.332031 506.546875 C 793.363281 520.027344 793.117188 559.136719 829.5 560.117188 C 838.929688 559.816406 838.929688 559.816406 838.929688 559.816406 L 847.671875 514.25 " fill-opacity="1" fill-rule="nonzero"/><path fill="#000000" d="M 827.328125 530.867188 C 824.765625 525.496094 818.226562 522.367188 812.4375 523.746094 L 811.546875 520 C 819.03125 518.222656 827.492188 522.261719 830.800781 529.207031 L 827.328125 530.867188 " fill-opacity="1" fill-rule="nonzero"/><path fill="#000000" d="M 829.5625 562.042969 C 814.066406 561.628906 802.980469 554.285156 799.035156 541.894531 C 794.859375 528.765625 799.648438 512.90625 810.179688 505.007812 C 829.382812 490.601562 852.417969 517.644531 852.652344 517.914062 L 849.703125 520.390625 C 849.496094 520.148438 828.792969 495.859375 812.488281 508.089844 C 803.359375 514.9375 799.0625 529.277344 802.707031 540.726562 C 804.710938 547.03125 810.871094 557.6875 829.550781 558.191406 L 838.867188 557.894531 L 838.996094 561.742188 L 829.5625 562.042969 " fill-opacity="1" fill-rule="nonzero"/><path fill="#000000" d="M 930.027344 652.816406 C 927.320312 652.816406 924.511719 652.691406 921.601562 652.4375 C 890.308594 649.699219 864.835938 625.722656 845.898438 581.167969 L 849.441406 579.660156 C 867.777344 622.800781 892.171875 645.996094 921.933594 648.601562 C 984.707031 654.101562 998.574219 594.171875 1004.496094 568.582031 L 1005.261719 565.304688 C 1012.753906 533.636719 1025.164062 456.6875 978.480469 426.164062 L 980.585938 422.941406 C 1029.3125 454.800781 1016.695312 533.730469 1009 566.191406 L 1008.242188 569.449219 C 1002.367188 594.84375 988.945312 652.816406 930.027344 652.816406 " fill-opacity="1" fill-rule="nonzero"/><path fill="#000000" d="M 849.914062 585.472656 C 849.914062 585.472656 843.472656 629.542969 859.195312 636.152344 C 872.5625 624.40625 872.5625 624.40625 872.5625 624.40625 L 849.914062 585.472656 " fill-opacity="1" fill-rule="nonzero"/><path fill="#ffffff" d="M 924.199219 608.988281 C 924.199219 608.988281 926.105469 618.214844 934.285156 619.175781 C 942.472656 620.140625 945.683594 617.378906 945.683594 617.378906 C 945.683594 617.378906 941.765625 616.480469 934.609375 613.683594 C 927.453125 610.886719 924.199219 608.988281 924.199219 608.988281 " fill-opacity="1" fill-rule="nonzero"/><path fill="#000000" d="M 923.425781 563.078125 C 918.980469 563.078125 915.332031 562.050781 912.359375 559.972656 C 906.226562 555.691406 903.734375 551.046875 902.390625 547.921875 L 898.683594 539.269531 L 905.492188 545.769531 C 915.15625 555 926.007812 559 937.738281 557.675781 L 938.171875 561.5 C 934.667969 561.902344 931.238281 561.867188 927.890625 561.410156 L 928.070312 562.746094 C 926.433594 562.964844 924.886719 563.078125 923.425781 563.078125 " fill-opacity="1" fill-rule="nonzero"/><path fill="#000000" d="M 987.96875 580.398438 C 986.464844 580.398438 984.859375 579.992188 983.246094 578.894531 C 982.578125 578.4375 981.476562 577.460938 979.730469 575.90625 C 978.753906 575.027344 977.308594 573.738281 976.054688 572.6875 C 975.105469 572.085938 974.140625 571.410156 973.175781 570.652344 L 963.007812 562.722656 L 975.050781 567.335938 C 975.839844 567.636719 976.917969 568.410156 978.3125 569.558594 C 986.644531 574.738281 993.769531 573.359375 998.644531 572.414062 C 1000.117188 572.125 1001.402344 571.878906 1002.476562 571.878906 L 1002.476562 575.726562 C 1001.773438 575.726562 1000.660156 575.945312 999.371094 576.195312 C 998.078125 576.445312 996.589844 576.734375 994.929688 576.933594 L 995.390625 577.664062 C 993.8125 578.667969 991.089844 580.398438 987.96875 580.398438 " fill-opacity="1" fill-rule="nonzero"/><path fill="#000000" d="M 989.605469 524 C 986.25 528.609375 997.917969 537.105469 1001.136719 538.773438 C 1004.417969 540.472656 1010.945312 542.914062 1011.6875 537.179688 C 1012.53125 530.675781 997.507812 519.898438 991.789062 522.394531 C 990.757812 522.84375 990.050781 523.386719 989.605469 524 " fill-opacity="1" fill-rule="nonzero"/><path fill="#000000" d="M 927.347656 511.21875 C 925.003906 516.417969 938.15625 522.351562 941.65625 523.328125 C 945.210938 524.320312 952.105469 525.375 951.660156 519.609375 C 951.15625 513.070312 934.25 505.585938 929.15625 509.199219 C 928.246094 509.851562 927.660156 510.53125 927.347656 511.21875 " fill-opacity="1" fill-rule="nonzero"/><path fill="#ffffff" d="M 837.214844 504.90625 L 836.882812 501.066406 C 846.640625 500.21875 856.640625 494.65625 864.304688 485.804688 C 872.117188 476.789062 876.785156 465.683594 879.984375 457.011719 L 883.597656 458.34375 C 880.285156 467.320312 875.4375 478.839844 867.214844 488.324219 C 858.898438 497.929688 847.96875 503.972656 837.214844 504.90625 " fill-opacity="1" fill-rule="nonzero"/><path fill="#000000" d="M 69.382812 593.765625 C 65.472656 593.765625 62.285156 596.949219 62.285156 600.867188 C 62.285156 604.78125 65.472656 607.964844 69.382812 607.964844 C 73.300781 607.964844 76.484375 604.78125 76.484375 600.867188 C 76.484375 596.949219 73.300781 593.765625 69.382812 593.765625 Z M 69.382812 611.816406 C 63.347656 611.816406 58.433594 606.902344 58.433594 600.867188 C 58.433594 594.828125 63.347656 589.914062 69.382812 589.914062 C 75.421875 589.914062 80.335938 594.828125 80.335938 600.867188 C 80.335938 606.902344 75.421875 611.816406 69.382812 611.816406 " fill-opacity="1" fill-rule="nonzero"/><path fill="#000000" d="M 186.476562 258.019531 C 182.558594 258.019531 179.378906 261.207031 179.378906 265.121094 C 179.378906 269.035156 182.558594 272.222656 186.476562 272.222656 C 190.390625 272.222656 193.578125 269.035156 193.578125 265.121094 C 193.578125 261.207031 190.390625 258.019531 186.476562 258.019531 Z M 186.476562 276.070312 C 180.4375 276.070312 175.523438 271.15625 175.523438 265.121094 C 175.523438 259.085938 180.4375 254.171875 186.476562 254.171875 C 192.515625 254.171875 197.425781 259.085938 197.425781 265.121094 C 197.425781 271.15625 192.515625 276.070312 186.476562 276.070312 " fill-opacity="1" fill-rule="nonzero"/><path fill="#000000" d="M 305.777344 591.519531 C 301.867188 591.519531 298.679688 594.703125 298.679688 598.617188 C 298.679688 602.535156 301.867188 605.71875 305.777344 605.71875 C 309.695312 605.71875 312.878906 602.535156 312.878906 598.617188 C 312.878906 594.703125 309.695312 591.519531 305.777344 591.519531 Z M 305.777344 609.570312 C 299.742188 609.570312 294.828125 604.65625 294.828125 598.617188 C 294.828125 592.582031 299.742188 587.667969 305.777344 587.667969 C 311.816406 587.667969 316.730469 592.582031 316.730469 598.617188 C 316.730469 604.65625 311.816406 609.570312 305.777344 609.570312 " fill-opacity="1" fill-rule="nonzero"/><path fill="#000000" d="M 95.269531 461.875 C 91.355469 461.875 88.171875 465.058594 88.171875 468.976562 C 88.171875 472.886719 91.355469 476.074219 95.269531 476.074219 C 99.1875 476.074219 102.371094 472.886719 102.371094 468.976562 C 102.371094 465.058594 99.1875 461.875 95.269531 461.875 Z M 95.269531 479.925781 C 89.230469 479.925781 84.320312 475.011719 84.320312 468.976562 C 84.320312 462.9375 89.230469 458.023438 95.269531 458.023438 C 101.308594 458.023438 106.222656 462.9375 106.222656 468.976562 C 106.222656 475.011719 101.308594 479.925781 95.269531 479.925781 " fill-opacity="1" fill-rule="nonzero"/><path fill="#ffffff" d="M 300.554688 440.726562 C 300.554688 445.710938 296.515625 449.75 291.53125 449.75 C 286.542969 449.75 282.503906 445.710938 282.503906 440.726562 C 282.503906 435.742188 286.542969 431.703125 291.53125 431.703125 C 296.515625 431.703125 300.554688 435.742188 300.554688 440.726562 " fill-opacity="1" fill-rule="nonzero"/><path fill="#a991cc" d="M 478.5625 218.019531 C 474.644531 218.019531 471.460938 221.203125 471.460938 225.121094 C 471.460938 229.03125 474.644531 232.21875 478.5625 232.21875 C 482.476562 232.21875 485.660156 229.03125 485.660156 225.121094 C 485.660156 221.203125 482.476562 218.019531 478.5625 218.019531 Z M 478.5625 236.070312 C 472.523438 236.070312 467.609375 231.15625 467.609375 225.121094 C 467.609375 219.082031 472.523438 214.167969 478.5625 214.167969 C 484.601562 214.167969 489.511719 219.082031 489.511719 225.121094 C 489.511719 231.15625 484.601562 236.070312 478.5625 236.070312 " fill-opacity="1" fill-rule="nonzero"/><path fill="#000000" d="M 176.089844 687.6875 L 152.023438 663.625 L 154.746094 660.902344 L 178.8125 684.964844 L 176.089844 687.6875 " fill-opacity="1" fill-rule="nonzero"/><path fill="#000000" d="M 154.746094 687.6875 L 152.023438 684.964844 L 176.089844 660.902344 L 178.8125 663.625 L 154.746094 687.6875 " fill-opacity="1" fill-rule="nonzero"/><path fill="#ffffff" d="M 802.128906 329.9375 L 778.054688 305.871094 L 780.78125 303.148438 L 804.847656 327.214844 L 802.128906 329.9375 " fill-opacity="1" fill-rule="nonzero"/><path fill="#ffffff" d="M 780.78125 329.9375 L 778.054688 327.214844 L 802.128906 303.148438 L 804.847656 305.871094 L 780.78125 329.9375 " fill-opacity="1" fill-rule="nonzero"/><path fill="#ffffff" d="M 369.085938 375.8125 L 365.625 374.121094 L 384.863281 334.796875 L 388.324219 336.488281 L 369.085938 375.8125 " fill-opacity="1" fill-rule="nonzero"/><path fill="#ffffff" d="M 395.789062 366.65625 L 356.464844 347.417969 L 358.15625 343.957031 L 397.480469 363.195312 L 395.789062 366.65625 " fill-opacity="1" fill-rule="nonzero"/><path fill="#a991cc" d="M 507.546875 477.960938 L 504.761719 475.300781 L 516.671875 462.847656 L 519.453125 465.511719 L 507.546875 477.960938 " fill-opacity="1" fill-rule="nonzero"/><path fill="#a991cc" d="M 517 477.753906 L 504.554688 465.84375 L 507.214844 463.058594 L 519.667969 474.96875 L 517 477.753906 " fill-opacity="1" fill-rule="nonzero"/><path fill="#a991cc" d="M 170.992188 586.890625 L 146.925781 562.824219 L 148.289062 561.460938 L 172.355469 585.527344 L 170.992188 586.890625 " fill-opacity="1" fill-rule="nonzero"/><path fill="#a991cc" d="M 148.289062 586.890625 L 146.925781 585.527344 L 170.992188 561.460938 L 172.355469 562.824219 L 148.289062 586.890625 " fill-opacity="1" fill-rule="nonzero"/><path fill="#a991cc" d="M 170.3125 587.570312 L 146.246094 563.503906 L 148.96875 560.78125 L 173.035156 584.847656 L 170.3125 587.570312 " fill-opacity="1" fill-rule="nonzero"/><path fill="#a991cc" d="M 148.96875 587.570312 L 146.246094 584.847656 L 170.3125 560.78125 L 173.035156 563.503906 L 148.96875 587.570312 " fill-opacity="1" fill-rule="nonzero"/><path fill="#ffffff" d="M 301.585938 268.820312 L 317.550781 332.210938 L 254.160156 348.175781 L 238.195312 284.78125 L 301.585938 268.820312 " fill-opacity="1" fill-rule="nonzero"/><path fill="#000000" d="M 240.535156 286.183594 L 255.558594 345.835938 L 315.214844 330.8125 L 300.191406 271.15625 Z M 254.632812 350.042969 L 252.292969 348.644531 L 236.332031 285.253906 L 237.726562 282.917969 L 301.117188 266.953125 L 303.457031 268.347656 L 319.417969 331.742188 L 318.019531 334.078125 L 254.632812 350.042969 " fill-opacity="1" fill-rule="nonzero"/><path fill="#ffffff" d="M 329.003906 232.933594 L 344.96875 296.324219 L 317.527344 332.222656 L 301.5625 268.835938 L 329.003906 232.933594 " fill-opacity="1" fill-rule="nonzero"/><path fill="#000000" d="M 303.65625 269.265625 L 318.421875 327.886719 L 342.875 295.890625 L 328.109375 237.273438 Z M 319.058594 333.394531 L 315.660156 332.695312 L 299.695312 269.304688 L 300.035156 267.664062 L 327.472656 231.765625 L 330.871094 232.464844 L 346.835938 295.855469 L 346.496094 297.492188 L 319.058594 333.394531 " fill-opacity="1" fill-rule="nonzero"/><path fill="#ffffff" d="M 328.296875 233.785156 L 301.480469 268.277344 L 238.089844 284.238281 L 264.90625 249.75 L 328.296875 233.785156 " fill-opacity="1" fill-rule="nonzero"/><path fill="#000000" d="M 266.019531 251.453125 L 243.042969 281.007812 L 300.367188 266.570312 L 323.34375 237.015625 Z M 238.5625 286.105469 L 236.570312 283.058594 L 263.386719 248.566406 L 264.433594 247.882812 L 327.828125 231.917969 L 329.816406 234.964844 L 303.003906 269.457031 L 301.953125 270.144531 L 238.5625 286.105469 " fill-opacity="1" fill-rule="nonzero"/><path fill="#ffffff" d="M 668.589844 358.820312 C 667.886719 358.820312 667.210938 358.4375 666.867188 357.777344 L 664.226562 352.640625 C 663.742188 351.691406 664.117188 350.53125 665.0625 350.046875 C 666.011719 349.5625 667.167969 349.9375 667.652344 350.878906 L 670.292969 356.015625 C 670.785156 356.960938 670.410156 358.121094 669.464844 358.609375 C 669.179688 358.753906 668.878906 358.820312 668.589844 358.820312 Z M 674.472656 370.933594 C 673.6875 370.933594 672.953125 370.453125 672.664062 369.679688 C 672.324219 368.742188 671.9375 367.789062 671.523438 366.824219 L 670.390625 364.625 C 669.902344 363.679688 670.273438 362.519531 671.222656 362.035156 C 672.167969 361.546875 673.328125 361.921875 673.816406 362.867188 L 675.011719 365.1875 C 675.507812 366.332031 675.90625 367.339844 676.277344 368.335938 C 676.644531 369.332031 676.144531 370.441406 675.144531 370.8125 C 674.917969 370.894531 674.691406 370.933594 674.472656 370.933594 Z M 677.199219 384.0625 C 676.144531 384.0625 675.28125 383.207031 675.273438 382.148438 C 675.265625 380.472656 675.082031 378.664062 674.707031 376.765625 C 674.507812 375.722656 675.191406 374.714844 676.234375 374.511719 C 677.277344 374.296875 678.289062 374.988281 678.488281 376.03125 C 678.902344 378.167969 679.121094 380.21875 679.128906 382.128906 C 679.132812 383.191406 678.277344 384.058594 677.210938 384.0625 C 677.207031 384.0625 677.207031 384.0625 677.199219 384.0625 Z M 672.679688 396.375 C 672.191406 396.375 671.699219 396.1875 671.328125 395.8125 C 670.5625 395.066406 670.5625 393.847656 671.3125 393.089844 C 671.6875 392.71875 672.027344 392.324219 672.355469 391.90625 C 673.046875 391.011719 673.625 390.011719 674.070312 388.929688 C 674.472656 387.945312 675.601562 387.480469 676.589844 387.886719 C 677.566406 388.292969 678.039062 389.417969 677.625 390.402344 C 677.050781 391.796875 676.296875 393.09375 675.394531 394.261719 C 674.976562 394.804688 674.527344 395.324219 674.042969 395.804688 C 673.667969 396.183594 673.171875 396.375 672.679688 396.375 Z M 639.59375 399.621094 C 639.441406 399.621094 639.28125 399.601562 639.117188 399.5625 C 637.273438 399.085938 635.371094 398.539062 633.460938 397.933594 C 632.449219 397.613281 631.890625 396.53125 632.210938 395.515625 C 632.535156 394.503906 633.617188 393.9375 634.625 394.265625 C 636.464844 394.847656 638.296875 395.375 640.078125 395.832031 C 641.109375 396.097656 641.726562 397.144531 641.460938 398.175781 C 641.238281 399.042969 640.457031 399.621094 639.59375 399.621094 Z M 660.554688 401.660156 C 659.597656 401.660156 658.769531 400.945312 658.648438 399.972656 C 658.515625 398.917969 659.261719 397.953125 660.316406 397.824219 C 662.21875 397.585938 663.96875 397.183594 665.527344 396.628906 C 666.53125 396.277344 667.636719 396.792969 667.988281 397.796875 C 668.34375 398.800781 667.820312 399.902344 666.824219 400.257812 C 665 400.910156 662.96875 401.375 660.792969 401.644531 C 660.714844 401.652344 660.632812 401.660156 660.554688 401.660156 Z M 652.871094 401.84375 C 652.832031 401.84375 652.792969 401.84375 652.75 401.839844 C 650.859375 401.722656 648.863281 401.5 646.828125 401.175781 C 645.777344 401.011719 645.0625 400.023438 645.230469 398.976562 C 645.398438 397.925781 646.382812 397.203125 647.433594 397.375 C 649.347656 397.675781 651.214844 397.886719 652.992188 397.996094 C 654.050781 398.0625 654.859375 398.976562 654.789062 400.039062 C 654.722656 401.058594 653.882812 401.84375 652.871094 401.84375 " fill-opacity="1" fill-rule="nonzero"/><path fill="#ffffff" d="M 663.929688 339.882812 C 663.929688 374.15625 636.148438 401.9375 601.878906 401.9375 C 567.605469 401.9375 539.824219 374.15625 539.824219 339.882812 C 539.824219 305.613281 567.605469 277.832031 601.878906 277.832031 C 636.148438 277.832031 663.929688 305.613281 663.929688 339.882812 " fill-opacity="1" fill-rule="nonzero"/><path fill="#000000" d="M 630.523438 397.8125 C 630.207031 397.8125 629.882812 397.757812 629.5625 397.648438 C 612.558594 391.660156 593.441406 380.832031 575.738281 367.15625 C 559.984375 354.984375 546.355469 341.429688 536.328125 327.960938 C 535.375 326.683594 535.640625 324.875 536.917969 323.921875 C 538.195312 322.96875 540.007812 323.230469 540.960938 324.511719 C 550.679688 337.566406 563.925781 350.730469 579.269531 362.585938 C 596.5 375.894531 615.046875 386.410156 631.484375 392.199219 C 632.984375 392.726562 633.777344 394.378906 633.246094 395.882812 C 632.832031 397.070312 631.714844 397.8125 630.523438 397.8125 " fill-opacity="1" fill-rule="nonzero"/><path fill="#ffffff" d="M 541 273.84375 C 540 273.84375 539.15625 273.070312 539.082031 272.054688 C 539.007812 270.992188 539.804688 270.074219 540.867188 270 C 542.769531 269.867188 544.777344 269.863281 546.890625 269.988281 C 547.953125 270.050781 548.757812 270.960938 548.695312 272.023438 C 548.632812 273.085938 547.730469 273.886719 546.660156 273.828125 C 544.722656 273.714844 542.878906 273.71875 541.136719 273.839844 C 541.09375 273.84375 541.046875 273.84375 541 273.84375 Z M 560.050781 276.035156 C 559.894531 276.035156 559.734375 276.015625 559.574219 275.976562 C 557.691406 275.492188 555.835938 275.085938 554.066406 274.757812 C 553.019531 274.566406 552.328125 273.566406 552.519531 272.519531 C 552.710938 271.472656 553.707031 270.773438 554.761719 270.972656 C 556.621094 271.3125 558.5625 271.742188 560.53125 272.246094 C 561.558594 272.507812 562.179688 273.558594 561.917969 274.585938 C 561.695312 275.457031 560.914062 276.035156 560.050781 276.035156 Z M 528.425781 278.097656 C 527.855469 278.097656 527.292969 277.84375 526.914062 277.363281 C 526.257812 276.53125 526.398438 275.320312 527.230469 274.660156 C 528.824219 273.402344 530.707031 272.375 532.820312 271.613281 C 533.824219 271.246094 534.925781 271.769531 535.285156 272.769531 C 535.648438 273.769531 535.128906 274.871094 534.128906 275.234375 C 532.40625 275.855469 530.886719 276.679688 529.617188 277.683594 C 529.265625 277.960938 528.847656 278.097656 528.425781 278.097656 Z M 572.867188 280.179688 C 572.640625 280.179688 572.40625 280.136719 572.175781 280.050781 C 570.378906 279.359375 568.578125 278.707031 566.824219 278.121094 C 565.816406 277.789062 565.269531 276.691406 565.609375 275.6875 C 565.949219 274.679688 567.039062 274.132812 568.046875 274.472656 C 569.851562 275.078125 571.710938 275.746094 573.558594 276.457031 C 574.554688 276.839844 575.046875 277.953125 574.664062 278.949219 C 574.371094 279.710938 573.640625 280.179688 572.867188 280.179688 Z M 585.210938 285.589844 C 584.925781 285.589844 584.640625 285.527344 584.367188 285.394531 C 582.625 284.542969 580.898438 283.738281 579.191406 282.972656 C 578.21875 282.539062 577.785156 281.402344 578.21875 280.429688 C 578.65625 279.457031 579.796875 279.027344 580.765625 279.457031 C 582.511719 280.242188 584.273438 281.066406 586.054688 281.933594 C 587.007812 282.398438 587.40625 283.550781 586.941406 284.507812 C 586.605469 285.191406 585.921875 285.589844 585.210938 285.589844 Z M 522.601562 289.796875 C 522.554688 289.796875 522.507812 289.796875 522.460938 289.792969 C 521.402344 289.714844 520.605469 288.792969 520.679688 287.730469 C 520.84375 285.492188 521.3125 283.40625 522.070312 281.535156 C 522.472656 280.550781 523.597656 280.078125 524.582031 280.476562 C 525.566406 280.875 526.039062 282 525.640625 282.984375 C 525.03125 284.480469 524.652344 286.175781 524.523438 288.011719 C 524.449219 289.023438 523.605469 289.796875 522.601562 289.796875 Z M 524.660156 303.027344 C 523.855469 303.027344 523.105469 302.519531 522.835938 301.714844 C 522.164062 299.71875 521.640625 297.757812 521.273438 295.902344 C 521.070312 294.859375 521.746094 293.847656 522.792969 293.640625 C 523.835938 293.433594 524.847656 294.113281 525.050781 295.15625 C 525.386719 296.851562 525.867188 298.648438 526.484375 300.492188 C 526.824219 301.5 526.28125 302.59375 525.273438 302.929688 C 525.070312 302.996094 524.863281 303.027344 524.660156 303.027344 Z M 530.21875 315.285156 C 529.546875 315.285156 528.890625 314.929688 528.539062 314.300781 C 527.550781 312.535156 526.636719 310.769531 525.824219 309.058594 C 525.367188 308.097656 525.777344 306.945312 526.738281 306.492188 C 527.699219 306.039062 528.847656 306.445312 529.300781 307.40625 C 530.078125 309.042969 530.953125 310.730469 531.898438 312.421875 C 532.417969 313.347656 532.085938 314.519531 531.15625 315.039062 C 530.859375 315.207031 530.539062 315.285156 530.21875 315.285156 Z M 536.253906 324.847656 C 535.644531 324.847656 535.046875 324.5625 534.671875 324.027344 C 533.960938 323.011719 533.273438 322 532.613281 320.996094 C 532.03125 320.105469 532.277344 318.910156 533.167969 318.328125 C 534.054688 317.742188 535.25 317.988281 535.832031 318.878906 C 536.472656 319.851562 537.140625 320.832031 537.828125 321.820312 C 538.4375 322.691406 538.226562 323.894531 537.351562 324.503906 C 537.019531 324.734375 536.632812 324.847656 536.253906 324.847656 " fill-opacity="1" fill-rule="nonzero"/><path fill="#ffffff" d="M 536.542969 376.171875 C 536.144531 376.171875 535.746094 376.046875 535.402344 375.796875 C 534.546875 375.167969 534.363281 373.960938 534.992188 373.105469 C 536.101562 371.597656 537.296875 370.050781 538.566406 368.464844 C 539.234375 367.636719 540.449219 367.507812 541.273438 368.167969 C 542.105469 368.832031 542.234375 370.042969 541.570312 370.875 C 540.335938 372.414062 539.175781 373.921875 538.09375 375.386719 C 537.71875 375.898438 537.132812 376.171875 536.542969 376.171875 Z M 529.386719 387.570312 C 529.101562 387.570312 528.808594 387.507812 528.535156 387.371094 C 527.582031 386.898438 527.191406 385.746094 527.664062 384.792969 C 528.476562 383.152344 529.460938 381.402344 530.578125 379.59375 C 531.136719 378.695312 532.324219 378.414062 533.230469 378.972656 C 534.132812 379.53125 534.410156 380.71875 533.851562 381.625 C 532.796875 383.328125 531.875 384.96875 531.117188 386.503906 C 530.777344 387.179688 530.097656 387.570312 529.386719 387.570312 Z M 558.773438 399.351562 C 558.015625 399.351562 557.300781 398.90625 556.996094 398.160156 C 556.589844 397.175781 557.0625 396.050781 558.042969 395.648438 C 559.738281 394.949219 561.484375 394.191406 563.277344 393.378906 C 564.242188 392.933594 565.386719 393.363281 565.828125 394.332031 C 566.265625 395.300781 565.839844 396.445312 564.871094 396.886719 C 563.035156 397.71875 561.246094 398.496094 559.507812 399.210938 C 559.265625 399.308594 559.019531 399.351562 558.773438 399.351562 Z M 526.878906 400.484375 C 526.089844 400.484375 525.347656 399.992188 525.070312 399.203125 C 524.695312 398.15625 524.503906 396.980469 524.503906 395.707031 C 524.503906 394.707031 524.621094 393.617188 524.859375 392.472656 C 525.070312 391.429688 526.082031 390.757812 527.128906 390.972656 C 528.171875 391.183594 528.839844 392.199219 528.628906 393.242188 C 528.445312 394.132812 528.355469 394.960938 528.355469 395.707031 C 528.355469 396.535156 528.46875 397.277344 528.695312 397.910156 C 529.050781 398.914062 528.53125 400.015625 527.527344 400.371094 C 527.3125 400.449219 527.097656 400.484375 526.878906 400.484375 Z M 546.035156 403.722656 C 545.179688 403.722656 544.394531 403.148438 544.171875 402.28125 C 543.90625 401.25 544.523438 400.203125 545.554688 399.933594 C 547.246094 399.496094 549.0625 398.949219 550.949219 398.3125 C 551.960938 397.972656 553.050781 398.515625 553.390625 399.523438 C 553.730469 400.53125 553.1875 401.621094 552.179688 401.960938 C 550.207031 402.628906 548.300781 403.199219 546.515625 403.660156 C 546.355469 403.707031 546.191406 403.722656 546.035156 403.722656 Z M 536.082031 405.226562 C 534.722656 405.226562 533.464844 405.113281 532.339844 404.890625 C 531.296875 404.683594 530.621094 403.667969 530.828125 402.628906 C 531.035156 401.585938 532.042969 400.898438 533.089844 401.113281 C 534.519531 401.398438 536.300781 401.445312 538.300781 401.273438 C 539.367188 401.179688 540.292969 401.960938 540.386719 403.023438 C 540.480469 404.082031 539.695312 405.015625 538.636719 405.109375 C 537.746094 405.1875 536.894531 405.226562 536.082031 405.226562 " fill-opacity="1" fill-rule="nonzero"/><path fill="#000000" d="M 568.042969 396.15625 C 566.96875 396.15625 565.941406 395.558594 565.441406 394.523438 C 564.746094 393.089844 565.347656 391.363281 566.785156 390.667969 C 583.492188 382.597656 602.515625 370.628906 620.351562 356.972656 C 635.972656 345.015625 647.632812 334.910156 658.160156 324.210938 C 659.273438 323.074219 661.101562 323.058594 662.242188 324.175781 C 663.378906 325.296875 663.390625 327.125 662.277344 328.261719 C 651.554688 339.164062 639.710938 349.433594 623.863281 361.5625 C 605.726562 375.445312 586.347656 387.632812 569.296875 395.871094 C 568.890625 396.066406 568.464844 396.15625 568.042969 396.15625 " fill-opacity="1" fill-rule="nonzero"/><path fill="#ffffff" d="M 668.046875 280.09375 C 667.203125 280.09375 666.421875 279.527344 666.191406 278.671875 C 665.914062 277.648438 666.519531 276.585938 667.542969 276.308594 C 669.617188 275.746094 671.574219 275.3125 673.378906 275.019531 C 674.429688 274.851562 675.414062 275.5625 675.589844 276.609375 C 675.757812 277.660156 675.046875 278.648438 674 278.820312 C 672.332031 279.089844 670.5 279.496094 668.554688 280.023438 C 668.386719 280.070312 668.214844 280.09375 668.046875 280.09375 Z M 686.539062 280.859375 C 686.039062 280.859375 685.539062 280.667969 685.160156 280.28125 C 684.285156 279.386719 682.914062 278.800781 681.085938 278.546875 C 680.035156 278.398438 679.300781 277.421875 679.449219 276.367188 C 679.597656 275.316406 680.589844 274.578125 681.625 274.730469 C 684.3125 275.109375 686.433594 276.070312 687.914062 277.589844 C 688.660156 278.347656 688.644531 279.566406 687.886719 280.3125 C 687.515625 280.679688 687.023438 280.859375 686.539062 280.859375 Z M 655.34375 284.5625 C 654.589844 284.5625 653.875 284.117188 653.566406 283.378906 C 653.160156 282.398438 653.625 281.269531 654.601562 280.859375 C 656.484375 280.078125 658.320312 279.355469 660.058594 278.714844 C 661.050781 278.355469 662.164062 278.863281 662.527344 279.863281 C 662.894531 280.863281 662.378906 281.96875 661.378906 282.335938 C 659.699219 282.949219 657.914062 283.652344 656.085938 284.414062 C 655.847656 284.515625 655.59375 284.5625 655.34375 284.5625 Z M 643.125 290.242188 C 642.421875 290.242188 641.746094 289.859375 641.410156 289.1875 C 640.925781 288.238281 641.308594 287.082031 642.253906 286.597656 C 644.03125 285.695312 645.777344 284.839844 647.492188 284.035156 C 648.453125 283.582031 649.597656 283.992188 650.050781 284.953125 C 650.507812 285.914062 650.09375 287.0625 649.132812 287.515625 C 647.453125 288.308594 645.738281 289.148438 643.992188 290.035156 C 643.714844 290.175781 643.421875 290.242188 643.125 290.242188 Z M 686.566406 293.589844 C 686.320312 293.589844 686.070312 293.542969 685.824219 293.441406 C 684.847656 293.03125 684.382812 291.902344 684.796875 290.921875 C 685.574219 289.046875 686.097656 287.339844 686.328125 285.847656 C 686.496094 284.796875 687.480469 284.070312 688.53125 284.246094 C 689.582031 284.414062 690.300781 285.398438 690.136719 286.449219 C 689.851562 288.242188 689.246094 290.246094 688.34375 292.40625 C 688.042969 293.144531 687.328125 293.589844 686.566406 293.589844 Z M 679.867188 305.253906 C 679.488281 305.253906 679.097656 305.140625 678.765625 304.90625 C 677.898438 304.300781 677.675781 303.097656 678.289062 302.226562 C 679.4375 300.585938 680.472656 298.996094 681.382812 297.496094 C 681.925781 296.589844 683.113281 296.300781 684.019531 296.847656 C 684.9375 297.398438 685.226562 298.582031 684.671875 299.492188 C 683.726562 301.0625 682.636719 302.722656 681.445312 304.433594 C 681.070312 304.96875 680.472656 305.253906 679.867188 305.253906 Z M 671.570312 315.875 C 671.132812 315.875 670.6875 315.722656 670.328125 315.414062 C 669.515625 314.722656 669.417969 313.507812 670.109375 312.699219 C 671.390625 311.203125 672.601562 309.734375 673.742188 308.292969 C 674.402344 307.460938 675.617188 307.324219 676.445312 307.988281 C 677.285156 308.648438 677.417969 309.859375 676.757812 310.691406 C 675.589844 312.164062 674.347656 313.667969 673.039062 315.199219 C 672.65625 315.644531 672.117188 315.875 671.570312 315.875 Z M 665.472656 322.699219 C 665 322.699219 664.53125 322.527344 664.15625 322.179688 C 663.382812 321.453125 663.335938 320.234375 664.066406 319.457031 L 665.046875 318.40625 C 665.765625 317.625 666.984375 317.578125 667.761719 318.292969 C 668.546875 319.015625 668.59375 320.234375 667.871094 321.015625 L 666.875 322.089844 C 666.5 322.496094 665.984375 322.699219 665.472656 322.699219 " fill-opacity="1" fill-rule="nonzero"/><path fill="#000000" d="M 703.6875 142.082031 C 702.851562 142.082031 701.949219 142.160156 700.988281 142.300781 C 690.128906 143.929688 680.652344 159.398438 680.046875 171.121094 C 679.886719 174.140625 680.246094 179.371094 684.433594 180.449219 C 695.300781 183.242188 702.933594 173.285156 712.597656 155.546875 C 712.800781 151.917969 712.433594 147.011719 709.878906 144.316406 C 708.472656 142.828125 706.394531 142.082031 703.6875 142.082031 Z M 724.875 191.699219 C 721.601562 191.699219 718.832031 190.726562 716.589844 188.789062 C 711.910156 184.734375 710.761719 177.195312 711.589844 168.832031 C 703.8125 181.007812 695.117188 189.171875 682.992188 186.042969 C 677.035156 184.503906 673.859375 178.957031 674.277344 170.824219 C 674.941406 158.050781 685.097656 138.84375 700.132812 136.585938 C 706.167969 135.679688 710.871094 136.953125 714.085938 140.355469 C 715.847656 142.222656 716.9375 144.542969 717.574219 146.925781 L 722.503906 149.160156 C 716.203125 165.210938 715.308594 180.042969 720.371094 184.421875 C 724.40625 187.910156 732.25 184.65625 738.117188 181.3125 L 740.980469 186.328125 C 734.703125 189.90625 729.320312 191.699219 724.875 191.699219 " fill-opacity="1" fill-rule="nonzero"/><path fill="#ffffff" d="M 340.726562 522.199219 L 338.003906 519.476562 L 363.632812 493.84375 L 366.355469 496.566406 L 340.726562 522.199219 " fill-opacity="1" fill-rule="nonzero"/><path fill="#ffffff" d="M 363.632812 522.199219 L 338.003906 496.566406 L 340.726562 493.84375 L 366.355469 519.476562 L 363.632812 522.199219 " fill-opacity="1" fill-rule="nonzero"/><path fill="#ffffff" d="M 682.65625 544.71875 C 662.75 521.546875 635.015625 511.632812 592.707031 512.65625 C 524.617188 514.261719 466.894531 506.609375 416.242188 489.238281 L 417.488281 485.597656 C 467.703125 502.816406 524.984375 510.410156 592.617188 508.804688 C 636.191406 507.8125 664.851562 518.082031 685.582031 542.210938 L 682.65625 544.71875 " fill-opacity="1" fill-rule="nonzero"/><path fill="#ffffff" d="M 743.195312 540.722656 C 733.136719 526.503906 706.414062 502.199219 690.710938 495.160156 C 659.207031 481.042969 633.839844 481.34375 601.714844 481.71875 C 596.328125 481.785156 590.761719 481.851562 584.960938 481.851562 L 584.960938 478 C 590.75 478 596.296875 477.933594 601.671875 477.871094 C 634.265625 477.484375 660.011719 477.179688 692.285156 491.648438 C 708.5 498.914062 736.019531 523.902344 746.339844 538.5 L 743.195312 540.722656 " fill-opacity="1" fill-rule="nonzero"/><path fill="#ffffff" d="M 725.074219 482.734375 C 704.90625 472.667969 682.367188 466.433594 659.894531 464.71875 L 660.183594 460.878906 C 683.152344 462.632812 706.183594 469 726.796875 479.289062 L 725.074219 482.734375 " fill-opacity="1" fill-rule="nonzero"/><path fill="#ffffff" d="M 1260.226562 391.855469 C 1285.226562 392.234375 1305.1875 412.808594 1304.804688 437.808594 C 1304.429688 462.808594 1283.851562 482.765625 1258.855469 482.386719 C 1233.847656 482.003906 1213.894531 461.429688 1214.277344 436.429688 C 1214.652344 411.429688 1235.230469 391.472656 1260.226562 391.855469 " fill-opacity="1" fill-rule="nonzero"/><path fill="#000000" d="M 1259.523438 393.773438 C 1235.988281 393.773438 1216.546875 412.921875 1216.191406 436.464844 C 1215.828125 460.359375 1234.972656 480.097656 1258.871094 480.460938 L 1259.546875 480.46875 C 1283.082031 480.46875 1302.507812 461.320312 1302.871094 437.78125 C 1303.242188 413.882812 1284.09375 394.144531 1260.191406 393.78125 Z M 1259.546875 484.316406 L 1258.8125 484.3125 C 1232.789062 483.917969 1211.945312 462.421875 1212.339844 436.402344 C 1212.726562 410.773438 1233.894531 389.925781 1259.523438 389.925781 L 1260.257812 389.929688 C 1286.269531 390.324219 1307.117188 411.820312 1306.71875 437.84375 C 1306.332031 463.46875 1285.167969 484.316406 1259.546875 484.316406 " fill-opacity="1" fill-rule="nonzero"/><path fill="#000000" d="M 1274.382812 394.324219 L 1272.492188 390.96875 C 1274.226562 389.984375 1275.972656 389.054688 1277.660156 388.203125 L 1279.398438 391.644531 C 1277.757812 392.464844 1276.070312 393.367188 1274.382812 394.324219 " fill-opacity="1" fill-rule="nonzero"/><path fill="#000000" d="M 1289.359375 387.324219 L 1288.0625 383.695312 C 1292.109375 382.25 1295.867188 381.3125 1299.222656 380.90625 L 1299.679688 384.730469 C 1296.605469 385.097656 1293.140625 385.972656 1289.359375 387.324219 Z M 1313.621094 393.511719 C 1313.480469 391 1312.742188 388.984375 1311.421875 387.523438 C 1310.847656 386.886719 1310.148438 386.347656 1309.359375 385.917969 L 1311.203125 382.535156 C 1312.378906 383.171875 1313.40625 383.980469 1314.273438 384.933594 C 1316.207031 387.070312 1317.277344 389.882812 1317.46875 393.296875 Z M 1310.808594 415.292969 L 1307.425781 413.445312 C 1309.320312 409.980469 1310.808594 406.6875 1311.84375 403.640625 L 1315.492188 404.890625 C 1314.378906 408.140625 1312.800781 411.636719 1310.808594 415.292969 Z M 1298.125 433.890625 L 1295.125 431.472656 C 1297.503906 428.539062 1299.710938 425.59375 1301.691406 422.710938 L 1304.867188 424.894531 C 1302.828125 427.855469 1300.5625 430.882812 1298.125 433.890625 Z M 1282.960938 450.402344 L 1280.289062 447.636719 C 1282.945312 445.0625 1285.519531 442.417969 1287.957031 439.773438 L 1290.789062 442.382812 C 1288.3125 445.078125 1285.667969 447.777344 1282.960938 450.402344 Z M 1266.054688 465.082031 L 1263.691406 462.035156 C 1266.535156 459.835938 1269.390625 457.492188 1272.191406 455.0625 L 1274.710938 457.96875 C 1271.859375 460.449219 1268.945312 462.839844 1266.054688 465.082031 Z M 1205.359375 472.117188 L 1201.539062 471.605469 C 1201.988281 468.285156 1203.09375 464.550781 1204.820312 460.5 L 1208.363281 462.011719 C 1206.773438 465.742188 1205.761719 469.140625 1205.359375 472.117188 Z M 1247.472656 477.648438 L 1245.546875 474.3125 C 1248.585938 472.554688 1251.710938 470.597656 1254.816406 468.484375 L 1256.988281 471.671875 C 1253.796875 473.835938 1250.585938 475.84375 1247.472656 477.648438 Z M 1226.816406 486.847656 L 1225.753906 483.148438 C 1228.894531 482.242188 1232.292969 480.960938 1235.863281 479.335938 L 1237.460938 482.839844 C 1233.722656 484.542969 1230.140625 485.890625 1226.816406 486.847656 Z M 1215.308594 488.582031 C 1210.605469 488.460938 1206.980469 487.03125 1204.539062 484.332031 C 1204.339844 484.113281 1204.148438 483.882812 1203.964844 483.644531 L 1207.023438 481.296875 C 1207.140625 481.453125 1207.265625 481.601562 1207.394531 481.75 C 1209.101562 483.636719 1211.800781 484.636719 1215.40625 484.734375 L 1215.308594 488.582031 " fill-opacity="1" fill-rule="nonzero"/><path fill="#000000" d="M 1213.378906 452.351562 L 1210.082031 450.367188 C 1211.066406 448.738281 1212.125 447.070312 1213.25 445.410156 L 1216.441406 447.558594 C 1215.355469 449.171875 1214.324219 450.785156 1213.378906 452.351562 " fill-opacity="1" fill-rule="nonzero"/><path fill="#000000" d="M 1218.144531 416.140625 C 1217.402344 414.863281 1216.707031 413.613281 1216.035156 412.394531 C 1215.78125 411.929688 1215.542969 411.472656 1215.300781 411.019531 L 1218.707031 409.222656 L 1219.425781 410.554688 C 1220.066406 411.746094 1220.753906 412.964844 1221.46875 414.210938 L 1218.144531 416.140625 " fill-opacity="1" fill-rule="nonzero"/><path fill="#000000" d="M 1229.675781 393.492188 C 1225.902344 390.792969 1222.570312 388.8125 1219.753906 387.605469 L 1221.269531 384.066406 C 1224.339844 385.382812 1227.921875 387.5 1231.914062 390.359375 Z M 1210.234375 399.890625 C 1208.777344 395.917969 1208.039062 392.566406 1208.039062 389.9375 C 1208.039062 388.867188 1208.160156 387.886719 1208.40625 387.027344 L 1212.113281 388.082031 C 1211.964844 388.597656 1211.890625 389.226562 1211.890625 389.9375 C 1211.890625 392.113281 1212.550781 395.015625 1213.851562 398.566406 Z M 1247.660156 408.855469 C 1244.695312 405.976562 1241.753906 403.277344 1238.921875 400.828125 L 1241.441406 397.914062 C 1244.332031 400.410156 1247.320312 403.164062 1250.34375 406.097656 Z M 1263.945312 426.1875 C 1261.320312 423.152344 1258.640625 420.179688 1255.984375 417.34375 L 1258.789062 414.710938 C 1261.484375 417.578125 1264.199219 420.59375 1266.859375 423.667969 Z M 1278.824219 444.773438 C 1276.519531 441.652344 1274.082031 438.480469 1271.570312 435.339844 L 1274.566406 432.929688 C 1277.121094 436.113281 1279.589844 439.328125 1281.921875 442.488281 Z M 1291.964844 464.546875 C 1290.082031 461.332031 1287.964844 457.953125 1285.648438 454.503906 L 1288.851562 452.359375 C 1291.199219 455.878906 1293.367188 459.320312 1295.285156 462.601562 Z M 1301.445312 485.796875 C 1300.792969 482.824219 1299.464844 479.183594 1297.492188 474.96875 L 1300.980469 473.335938 C 1303.074219 477.808594 1304.488281 481.71875 1305.207031 484.972656 Z M 1299.105469 496.914062 C 1296.105469 496.914062 1292.179688 495.476562 1287.414062 492.644531 L 1289.386719 489.335938 C 1294.566406 492.414062 1297.523438 493.0625 1299.082031 493.0625 L 1299.410156 493.050781 L 1299.65625 496.894531 C 1299.476562 496.902344 1299.296875 496.910156 1299.105469 496.914062 " fill-opacity="1" fill-rule="nonzero"/><path fill="#000000" d="M 1277.355469 485.597656 C 1275.894531 484.4375 1274.390625 483.191406 1272.839844 481.867188 L 1275.351562 478.949219 C 1276.855469 480.234375 1278.324219 481.445312 1279.753906 482.578125 L 1277.355469 485.597656 " fill-opacity="1" fill-rule="nonzero"/><path fill="#ffffff" d="M 1046.847656 293.101562 L 1003.804688 277.183594 L 1019.722656 234.144531 L 1062.765625 250.0625 L 1046.847656 293.101562 " fill-opacity="1" fill-rule="nonzero"/><path fill="#000000" d="M 1006.277344 276.042969 L 1045.714844 290.625 L 1060.292969 251.199219 L 1020.867188 236.617188 Z M 1047.984375 295.574219 L 1001.335938 278.320312 L 1018.59375 231.667969 L 1065.242188 248.921875 L 1047.984375 295.574219 " fill-opacity="1" fill-rule="nonzero"/><path fill="#ffffff" d="M 1051.894531 322.546875 L 1008.851562 306.625 L 1004.007812 277.304688 L 1047.046875 293.226562 L 1051.894531 322.546875 " fill-opacity="1" fill-rule="nonzero"/><path fill="#000000" d="M 1010.578125 305.210938 L 1049.457031 319.589844 L 1045.328125 294.640625 L 1006.453125 280.261719 Z M 1051.226562 324.351562 L 1008.195312 308.433594 L 1006.964844 306.941406 L 1002.113281 277.617188 L 1004.671875 275.5 L 1047.714844 291.417969 L 1048.945312 292.90625 L 1053.796875 322.230469 L 1051.226562 324.351562 " fill-opacity="1" fill-rule="nonzero"/><path fill="#ffffff" d="M 1052.292969 322.546875 L 1047.046875 293.066406 L 1062.964844 250.027344 L 1068.214844 279.507812 L 1052.292969 322.546875 " fill-opacity="1" fill-rule="nonzero"/><path fill="#000000" d="M 1049.03125 293.246094 L 1052.945312 315.230469 L 1066.230469 279.332031 L 1062.3125 257.34375 Z M 1054.101562 323.214844 L 1050.402344 322.882812 L 1045.15625 293.40625 L 1045.242188 292.398438 L 1061.164062 249.359375 L 1064.859375 249.6875 L 1070.113281 279.167969 L 1070.027344 280.175781 L 1054.101562 323.214844 " fill-opacity="1" fill-rule="nonzero"/><path fill="#000000" d="M 1148.527344 402.257812 C 1146.859375 402.257812 1145.222656 402.082031 1143.628906 401.722656 C 1140.742188 401.066406 1138.082031 399.835938 1135.511719 398.648438 C 1133.539062 397.734375 1131.679688 396.867188 1129.730469 396.253906 C 1123.066406 394.164062 1115.386719 395.324219 1109.648438 399.277344 L 1107.460938 396.105469 C 1114.152344 391.496094 1123.132812 390.140625 1130.882812 392.578125 C 1133.074219 393.269531 1135.140625 394.226562 1137.136719 395.152344 C 1139.632812 396.308594 1141.988281 397.402344 1144.476562 397.96875 C 1150.734375 399.382812 1158.074219 397.363281 1164.597656 392.410156 L 1166.921875 395.480469 C 1161.097656 399.90625 1154.605469 402.257812 1148.527344 402.257812 " fill-opacity="1" fill-rule="nonzero"/><path fill="#000000" d="M 1148.519531 419.578125 C 1146.859375 419.578125 1145.21875 419.402344 1143.636719 419.039062 C 1140.742188 418.382812 1138.082031 417.152344 1135.519531 415.964844 C 1133.539062 415.046875 1131.679688 414.183594 1129.730469 413.570312 C 1123.074219 411.472656 1115.386719 412.640625 1109.648438 416.59375 L 1107.460938 413.421875 C 1114.152344 408.808594 1123.125 407.457031 1130.882812 409.894531 C 1133.074219 410.585938 1135.140625 411.542969 1137.136719 412.46875 C 1139.632812 413.625 1141.988281 414.71875 1144.484375 415.285156 C 1150.738281 416.703125 1158.074219 414.675781 1164.597656 409.726562 L 1166.921875 412.796875 C 1161.089844 417.222656 1154.605469 419.578125 1148.519531 419.578125 " fill-opacity="1" fill-rule="nonzero"/></svg>